<svg width="47" height="31" viewBox="0 0 47 31" fill="none" xmlns="http://www.w3.org/2000/svg">
<path fill-rule="evenodd" clip-rule="evenodd" d="M0 15.1083L0.491611 13.9214C0.491611 13.9214 1.23331 13.4298 1.67846 13.4298H41.2667L30.7025 2.86894C30.3873 2.55377 30.2102 2.1263 30.2102 1.68058C30.2102 1.23487 30.3873 0.807402 30.7025 0.492231C31.0176 0.177061 31.4451 1.05015e-08 31.8908 0C32.3365 -1.05015e-08 32.764 0.177061 33.0792 0.492231L46.5069 13.9199C46.6632 14.0759 46.7872 14.2611 46.8718 14.465C46.9564 14.6689 47 14.8875 47 15.1083C47 15.3291 46.9564 15.5477 46.8718 15.7516C46.7872 15.9555 46.6632 16.1407 46.5069 16.2966L33.0792 29.7244C32.764 30.0395 32.3365 30.2166 31.8908 30.2166C31.4451 30.2166 31.0176 30.0395 30.7025 29.7244C30.3873 29.4092 30.2102 28.9817 30.2102 28.536C30.2102 28.0903 30.3873 27.6628 30.7025 27.3477L41.2667 16.7868C41.2667 16.7868 2.12362 16.7868 1.67846 16.7868C1.23331 16.7868 0.806384 16.6099 0.491611 16.2952C0.176838 15.9804 0 15.5535 0 15.1083Z" fill="white"/>
</svg>
