<svg width="25" height="28" viewBox="0 0 25 28" fill="none" xmlns="http://www.w3.org/2000/svg">
<path d="M12.2457 27.9999C13.1736 27.9999 14.0635 27.6313 14.7196 26.9752C15.3758 26.319 15.7444 25.4291 15.7444 24.5012H8.7469C8.7469 25.4291 9.11551 26.319 9.77166 26.9752C10.4278 27.6313 11.3177 27.9999 12.2457 27.9999ZM12.2457 3.36514L10.8514 3.64679C9.26959 3.96842 7.84761 4.82703 6.82643 6.07713C5.80524 7.32723 5.24765 8.89194 5.24814 10.5061C5.24814 11.6047 5.01372 14.3495 4.44517 17.0523C4.16527 18.3941 3.78741 19.7918 3.28533 21.0024H21.206C20.7039 19.7918 20.3278 18.3958 20.0461 17.0523C19.4776 14.3495 19.2432 11.6047 19.2432 10.5061C19.2433 8.89224 18.6855 7.32794 17.6643 6.0782C16.6432 4.82846 15.2214 3.97011 13.6399 3.64854L12.2457 3.36514ZM23.1268 21.0024C23.5169 21.7844 23.9682 22.4037 24.4913 22.7518H0C0.523064 22.4037 0.974404 21.7844 1.36452 21.0024C2.93896 17.8535 3.49876 12.0456 3.49876 10.5061C3.49876 6.27261 6.50769 2.73886 10.505 1.9324C10.4806 1.68916 10.5074 1.44349 10.5838 1.21126C10.6602 0.979024 10.7843 0.765371 10.9484 0.58408C11.1124 0.402788 11.3125 0.257884 11.536 0.158712C11.7594 0.0595392 12.0012 0.00830078 12.2457 0.00830078C12.4901 0.00830078 12.7319 0.0595392 12.9553 0.158712C13.1788 0.257884 13.379 0.402788 13.543 0.58408C13.707 0.765371 13.8311 0.979024 13.9075 1.21126C13.9839 1.44349 14.0107 1.68916 13.9863 1.9324C15.9639 2.33397 17.7418 3.40698 19.0187 4.96956C20.2956 6.53213 20.993 8.48816 20.9925 10.5061C20.9925 12.0456 21.5524 17.8535 23.1268 21.0024Z" fill="#5F502A"/>
</svg>
