<svg width="80" height="80" viewBox="0 0 80 80" fill="none" xmlns="http://www.w3.org/2000/svg">
<path fill-rule="evenodd" clip-rule="evenodd" d="M75 40C75 30.7174 71.3125 21.815 64.7487 15.2513C58.185 8.68749 49.2826 5 40 5C30.7174 5 21.815 8.68749 15.2513 15.2513C8.68749 21.815 5 30.7174 5 40C5 49.2826 8.68749 58.185 15.2513 64.7487C21.815 71.3125 30.7174 75 40 75C49.2826 75 58.185 71.3125 64.7487 64.7487C71.3125 58.185 75 49.2826 75 40ZM0 40C0 29.3913 4.21427 19.2172 11.7157 11.7157C19.2172 4.21427 29.3913 0 40 0C50.6087 0 60.7828 4.21427 68.2843 11.7157C75.7857 19.2172 80 29.3913 80 40C80 50.6087 75.7857 60.7828 68.2843 68.2843C60.7828 75.7857 50.6087 80 40 80C29.3913 80 19.2172 75.7857 11.7157 68.2843C4.21427 60.7828 0 50.6087 0 40ZM57.5 42.5C58.163 42.5 58.7989 42.2366 59.2678 41.7678C59.7366 41.2989 60 40.663 60 40C60 39.337 59.7366 38.7011 59.2678 38.2322C58.7989 37.7634 58.163 37.5 57.5 37.5L28.535 37.5L39.27 26.77C39.5024 26.5376 39.6868 26.2616 39.8126 25.9579C39.9384 25.6542 40.0032 25.3287 40.0032 25C40.0032 24.6713 39.9384 24.3458 39.8126 24.0421C39.6868 23.7384 39.5024 23.4624 39.27 23.23C39.0376 22.9976 38.7616 22.8132 38.4579 22.6874C38.1542 22.5616 37.8287 22.4968 37.5 22.4968C37.1713 22.4968 36.8458 22.5616 36.5421 22.6874C36.2384 22.8132 35.9624 22.9976 35.73 23.23L20.73 38.23C20.4972 38.4622 20.3125 38.7381 20.1864 39.0418C20.0604 39.3456 19.9955 39.6712 19.9955 40C19.9955 40.3288 20.0604 40.6544 20.1864 40.9582C20.3125 41.2619 20.4972 41.5378 20.73 41.77L35.73 56.77C35.9624 57.0024 36.2384 57.1868 36.5421 57.3126C36.8458 57.4384 37.1713 57.5032 37.5 57.5032C37.8287 57.5032 38.1542 57.4384 38.4579 57.3126C38.7616 57.1868 39.0376 57.0024 39.27 56.77C39.5024 56.5376 39.6868 56.2616 39.8126 55.9579C39.9384 55.6542 40.0032 55.3287 40.0032 55C40.0032 54.6713 39.9384 54.3458 39.8126 54.0421C39.6868 53.7384 39.5024 53.4624 39.27 53.23L28.535 42.5L57.5 42.5Z" fill="white"/>
</svg>
