<svg width="25" height="27" viewBox="0 0 25 27" fill="none" xmlns="http://www.w3.org/2000/svg">
<path d="M12.2457 26.135C15.213 26.1367 18.08 25.0602 20.3129 23.106C22.5459 21.1517 23.9928 18.4527 24.3843 15.5112C24.7758 12.5698 24.0853 9.5863 22.4413 7.11596C20.7973 4.64562 18.3118 2.85673 15.4473 2.08218C15.517 1.83913 15.5294 1.58319 15.4833 1.33455C15.4373 1.08591 15.334 0.851374 15.1818 0.649457C15.0296 0.44754 14.8325 0.283765 14.6062 0.171055C14.3798 0.0583462 14.1303 -0.000212457 13.8775 5.79188e-07H10.6139C10.361 -0.000212457 10.1115 0.0583462 9.88515 0.171055C9.65879 0.283765 9.46172 0.44754 9.30949 0.649457C9.15726 0.851374 9.05404 1.08591 9.00798 1.33455C8.96191 1.58319 8.97426 1.83913 9.04406 2.08218C6.17955 2.85673 3.69401 4.64562 2.05 7.11596C0.405994 9.5863 -0.284498 12.5698 0.107028 15.5112C0.498554 18.4527 1.94543 21.1517 4.17838 23.106C6.41134 25.0602 9.27828 26.1367 12.2457 26.135ZM22.8524 13.8964C22.8524 16.7095 21.7349 19.4074 19.7457 21.3965C17.7566 23.3857 15.0587 24.5032 12.2457 24.5032C9.43258 24.5032 6.73472 23.3857 4.74557 21.3965C2.75643 19.4074 1.63894 16.7095 1.63894 13.8964C1.63894 11.0834 2.75643 8.3855 4.74557 6.39635C6.73472 4.40721 9.43258 3.28972 12.2457 3.28972C15.0587 3.28972 17.7566 4.40721 19.7457 6.39635C21.7349 8.3855 22.8524 11.0834 22.8524 13.8964Z" fill="#5F502A"/>
<path d="M10.5159 12.1397L18.5933 7.52173L13.9753 15.5992L5.89954 20.2172L10.5159 12.1397Z" fill="#5F502A"/>
</svg>
