<svg width="69" height="66" viewBox="0 0 69 66" fill="none" xmlns="http://www.w3.org/2000/svg">
<path fill-rule="evenodd" clip-rule="evenodd" d="M68.538 32.3226L69 31.949V15.9271C64.3241 12.0761 59.7463 8.11726 55.0801 4.26642L51.4231 7.16641L48.2381 4.53184L40.531 10.666L35.4388 6.46844L33.9446 7.68742V23.6029H34.1314L34.0134 23.7406L40.3835 28.9999L40.5015 28.8622L40.6195 29.0097L48.2086 22.9738L55.7682 29.2161L33.1581 47.196L12.6223 30.2975L27.5548 18.4223L28.066 18.845V19.1399L29.6487 17.8816V1.70067L27.5863 0H27.562C18.3747 7.31058 9.18736 14.6113 0 21.9219V38.1029C11.0789 47.255 22.1677 56.3974 33.2466 65.5397C45.0137 56.1909 56.7709 46.8421 68.538 37.4835V32.3226ZM28.4395 2.86067L29.2849 2.18238V17.7145L28.4395 18.3928V2.86067ZM12.4749 29.9534L2.89016 22.0399L27.368 2.57559V18.1077L12.4749 29.9534ZM27.7416 2.58542L28.066 2.85084V18.3731L27.7416 18.1077V2.58542ZM54.8638 11.9932L51.6886 9.37827L54.8638 6.85184V11.9932ZM62.7577 18.5108L55.2374 12.3077L55.2472 12.2979V6.86167L66.1197 15.8369L62.7577 18.5108ZM40.6785 12.9664L48.0218 7.12709V22.6592L40.6785 28.4985V12.9664ZM48.3954 7.13693L51.2069 9.45691V24.9792L48.3954 22.6592V7.13693ZM34.3083 8.01183L40.3147 12.9664V28.4887L34.3083 23.5341V8.01183ZM56.8889 28.3314L56.0631 28.99L51.5804 25.2938V9.77148L56.8889 14.146V28.3314ZM62.5709 23.8192L57.2624 28.0365V14.4606L62.5709 18.8352V23.8192ZM65.4512 18.7664L68.6264 16.2399V31.7622L68.5281 31.8409V21.3026L65.4512 18.7664ZM65.638 21.3714L62.9346 23.5243V19.1399L65.638 21.3714ZM68.1644 21.7745V37.3066L33.4334 64.9204V49.3882L68.1644 21.7745ZM5.76066 29.0785V42.3889L0.373562 37.9358V22.4135L33.0598 49.3882V64.9105L12.4159 47.8743V34.2887L5.98675 28.7836L5.77049 29.0392L5.76066 29.0294V29.049L5.75082 29.0687L5.76066 29.0785ZM52.7404 43.4015L65.2055 33.6398L65.0875 25.8246L52.7404 35.6453V43.4015ZM63.8194 32.5683L62.9346 33.2761V28.0168L63.8194 27.309V32.5683ZM62.561 33.571L62.0794 33.9544L58.8353 31.2805L62.561 28.3117V33.571ZM6.97963 34.3673V30.1205L9.52571 32.2931L6.97963 34.3673ZM55.7584 39.2137L53.114 41.3174V35.8222L58.5404 31.5066L61.9319 34.3083L55.7584 39.2137ZM6.97963 41.6517V34.849L9.8108 32.5388L12.0521 34.4558V47.5696L5.90811 42.5069L6.97963 41.6517Z" fill="#FEFEFE"/>
</svg>
