<svg width="25" height="11" viewBox="0 0 25 11" fill="none" xmlns="http://www.w3.org/2000/svg">
<path d="M10.7153 5.48363C10.7154 6.19635 10.5733 6.90193 10.2973 7.55905C10.0213 8.21616 9.61698 8.81161 9.10799 9.31052H15.3841C14.4971 8.44141 13.9395 7.29117 13.8067 6.05645C13.674 4.82174 13.9742 3.57924 14.6562 2.54142C15.3381 1.5036 16.3595 0.73491 17.5455 0.366788C18.7315 -0.00133409 20.0085 0.0539761 21.1583 0.523261C22.308 0.992546 23.2591 1.84666 23.8487 2.93956C24.4384 4.03245 24.6301 5.29626 24.3911 6.51487C24.1521 7.73348 23.4972 8.83121 22.5383 9.62037C21.5795 10.4095 20.3763 10.8411 19.1344 10.8413H5.35764C4.298 10.8413 3.26216 10.5271 2.3811 9.93835C1.50004 9.34964 0.813336 8.51289 0.407829 7.53391C0.00232142 6.55493 -0.103778 5.47768 0.102948 4.4384C0.309674 3.39912 0.81994 2.44448 1.56922 1.6952C2.3185 0.945917 3.27314 0.435651 4.31242 0.228925C5.3517 0.0221987 6.42894 0.128298 7.40793 0.533806C8.38691 0.939313 9.22366 1.62602 9.81236 2.50708C10.4011 3.38814 10.7153 4.42398 10.7153 5.48363ZM1.53076 5.48363C1.53076 6.49858 1.93395 7.47197 2.65163 8.18965C3.36931 8.90733 4.34269 9.31052 5.35764 9.31052C6.3726 9.31052 7.34598 8.90733 8.06366 8.18965C8.78134 7.47197 9.18453 6.49858 9.18453 5.48363C9.18453 4.46867 8.78134 3.49529 8.06366 2.77761C7.34598 2.05992 6.3726 1.65674 5.35764 1.65674C4.34269 1.65674 3.36931 2.05992 2.65163 2.77761C1.93395 3.49529 1.53076 4.46867 1.53076 5.48363ZM22.9613 5.48363C22.9613 4.46867 22.5581 3.49529 21.8405 2.77761C21.1228 2.05992 20.1494 1.65674 19.1344 1.65674C18.1195 1.65674 17.1461 2.05992 16.4284 2.77761C15.7107 3.49529 15.3076 4.46867 15.3076 5.48363C15.3076 6.49858 15.7107 7.47197 16.4284 8.18965C17.1461 8.90733 18.1195 9.31052 19.1344 9.31052C20.1494 9.31052 21.1228 8.90733 21.8405 8.18965C22.5581 7.47197 22.9613 6.49858 22.9613 5.48363Z" fill="#5F502A"/>
</svg>
