<svg width="18" height="18" viewBox="0 0 18 18" fill="none" xmlns="http://www.w3.org/2000/svg">
<path fill-rule="evenodd" clip-rule="evenodd" d="M14.5971 9.94381C13.9195 9.30944 13.0175 8.97027 12.0898 9.0009C11.162 9.03153 10.2844 9.42945 9.65008 10.1071C9.01572 10.7848 8.67654 11.6867 8.70717 12.6145C8.7378 13.5422 9.13572 14.4198 9.8134 15.0542C10.4911 15.6885 11.393 16.0277 12.3207 15.9971C13.2485 15.9665 14.1261 15.5685 14.7605 14.8909C15.3948 14.2132 15.734 13.3113 15.7034 12.3835C15.6727 11.4558 15.2748 10.5782 14.5971 9.94381ZM13.2138 10.9036C13.2813 10.9014 13.3485 10.9129 13.4113 10.9373C13.4742 10.9618 13.5315 10.9987 13.5797 11.0459C13.6279 11.0931 13.6661 11.1496 13.692 11.2119C13.7178 11.2743 13.7307 11.3412 13.73 11.4086L13.7146 13.1064C13.7139 13.1721 13.7003 13.237 13.6746 13.2974C13.6488 13.3578 13.6115 13.4125 13.5646 13.4585C13.5177 13.5045 13.4622 13.5407 13.4012 13.5652C13.3403 13.5898 13.2752 13.602 13.2095 13.6014C13.1438 13.6007 13.079 13.5871 13.0185 13.5614C12.9581 13.5356 12.9034 13.4982 12.8574 13.4513C12.8115 13.4044 12.7752 13.3489 12.7507 13.288C12.7262 13.2271 12.7139 13.1619 12.7146 13.0963L12.7186 12.6823L11.5452 13.9358C11.4546 14.0326 11.3292 14.0894 11.1967 14.0938C11.0641 14.0982 10.9353 14.0497 10.8385 13.9591C10.7417 13.8685 10.6848 13.7431 10.6805 13.6106C10.6761 13.478 10.7245 13.3492 10.8152 13.2524L12.0405 11.9434L11.4801 11.9626C11.3474 11.967 11.2184 11.9185 11.1214 11.8277C11.0245 11.737 10.9676 11.6115 10.9632 11.4788C10.9588 11.3461 11.0073 11.217 11.0981 11.1201C11.1888 11.0232 11.3143 10.9663 11.447 10.9619L13.2138 10.9036Z" fill="white"/>
<path fill-rule="evenodd" clip-rule="evenodd" d="M15.5593 0.145173C15.6285 0.214505 15.6758 0.302647 15.6954 0.398651C15.7149 0.494654 15.7058 0.594287 15.6693 0.685173L12.8693 7.68517C12.8458 7.74743 12.8101 7.80438 12.7644 7.85268C12.7186 7.90099 12.6637 7.93967 12.6028 7.96647C12.5419 7.99327 12.4762 8.00764 12.4097 8.00875C12.3432 8.00986 12.2771 7.99768 12.2153 7.97292C12.1536 7.94816 12.0974 7.91133 12.0501 7.86458C12.0027 7.81782 11.9652 7.76209 11.9396 7.70065C11.9141 7.63921 11.9011 7.57328 11.9014 7.50675C11.9017 7.44021 11.9152 7.3744 11.9413 7.31317L13.8363 2.57517L6.34225 10.0692L7.71825 12.2312C7.75351 12.2866 7.77751 12.3484 7.78888 12.4131C7.80025 12.4778 7.79876 12.5441 7.78451 12.6082C7.77026 12.6723 7.74351 12.733 7.70581 12.7868C7.6681 12.8406 7.62017 12.8864 7.56475 12.9217C7.50934 12.9569 7.44752 12.9809 7.38282 12.9923C7.31813 13.0037 7.25183 13.0022 7.18771 12.9879C7.12359 12.9737 7.06291 12.9469 7.00913 12.9092C6.95534 12.8715 6.90951 12.8236 6.87425 12.7682L5.34325 10.3612L0.348254 7.18317C0.231572 7.10916 0.137606 7.00434 0.0767238 6.8803C0.0158421 6.75626 -0.00958824 6.61781 0.0032389 6.48023C0.016066 6.34264 0.066652 6.21128 0.149415 6.10063C0.232178 5.98998 0.3439 5.90434 0.472254 5.85317L15.0193 0.0361732C15.1101 -0.000414535 15.2098 -0.00949426 15.3058 0.0100619C15.4018 0.0296181 15.4899 0.0769483 15.5593 0.146173V0.145173ZM5.63525 9.36217L13.1293 1.86817L1.29625 6.60117L5.63525 9.36217Z" fill="white"/>
</svg>
